<svg width="78" height="50" viewBox="0 0 78 50" fill="none" xmlns="http://www.w3.org/2000/svg">
    <path fill-rule="evenodd" clip-rule="evenodd" d="M50.1628 0.502786C52.8107 1.19024 55.4362 2.68006 56.8577 5.19263C57.9421 7.10932 58.3736 9.1522 57.7758 11.1807C57.2102 13.1001 55.8749 14.4647 54.6167 15.4297C53.3493 16.4018 51.8409 17.2068 50.4725 17.8948C49.9923 18.1362 49.5333 18.3616 49.0891 18.5796C48.1736 19.0291 47.3214 19.4475 46.4782 19.9111C44.5838 20.9527 43.2258 22.8071 42.8424 24.5349C42.5095 26.0346 42.877 27.3456 44.3878 28.327C44.4372 28.3246 44.52 28.315 44.645 28.2859C45.0999 28.1802 45.8139 27.8732 46.7693 27.2238C48.669 25.9328 50.927 23.6994 53.1237 20.8775C55.3005 18.081 57.3019 14.8546 58.7466 11.6996C60.2139 8.4953 60.9963 5.60497 60.9963 3.4166H67.2952V34.3196H60.9963V20.6184C60.0833 22.0394 59.111 23.4112 58.1083 24.6993C55.6837 27.8141 52.9639 30.5904 50.3283 32.3817C49.0161 33.2735 47.5731 34.0258 46.0814 34.3725C44.5542 34.7275 42.7627 34.6945 41.1371 33.684C37.0229 31.1263 35.8501 26.9789 36.6909 23.1902C37.4879 19.5993 40.0529 16.2973 43.4257 14.4429C44.3993 13.9076 45.4736 13.3798 46.4554 12.8975C46.8666 12.6955 47.2615 12.5015 47.6259 12.3182C48.962 11.6465 50.0064 11.0652 50.765 10.4834C51.533 9.89438 51.6973 9.53724 51.7301 9.42591L51.7303 9.42557C51.7348 9.414 51.8517 9.11277 51.3654 8.25322C51.0585 7.71082 50.2059 6.97563 48.5687 6.55057C46.9883 6.14028 45.0142 6.12442 43.0577 6.67503C39.3329 7.72332 35.5884 10.8329 35.0496 17.5998C34.8392 20.2416 35.1468 23.0653 35.5589 25.9715C35.626 26.4451 35.6974 26.9285 35.7696 27.4173C36.1155 29.7582 36.4794 32.2217 36.4794 34.3196L30.1805 34.3197C30.1805 32.7216 29.9035 30.8319 29.5625 28.5059C29.4846 27.9748 29.4034 27.4209 29.3214 26.8425C28.9036 23.8954 28.5012 20.4855 28.7702 17.1073C29.5223 7.66342 35.1502 2.40267 41.3393 0.660871C44.3398 -0.183566 47.458 -0.199422 50.1628 0.502786ZM44.329 28.3254C44.329 28.3254 44.335 28.3253 44.3455 28.3274C44.3339 28.3269 44.329 28.3254 44.329 28.3254Z" fill="black"/>
    <path d="M15.0087 34.5776C5.51601 34.5776 0 30.0445 0 22.0793H5.70842C5.70842 27.3895 9.17196 30.0445 15.0728 30.0445C19.5626 30.0445 21.8716 28.6199 21.8716 25.3172C21.8716 23.1154 20.5247 21.8203 17.1894 20.9137L8.65885 18.3881C5.06703 17.352 1.28279 15.0207 1.28279 9.90483C1.28279 4.2709 5.90084 1.09776 13.4693 1.09776C21.6792 1.09776 26.8104 4.91848 26.8104 11.9123H21.1019C21.1019 8.02686 18.4081 5.56605 13.5335 5.56605C9.42852 5.56605 6.92708 7.37928 6.92708 9.77532C6.92708 11.9123 8.33815 13.2075 11.481 14.1141L18.9212 16.2511C24.3089 17.8053 27.58 20.4604 27.58 25.4467C27.58 31.2749 23.2185 34.5776 15.0087 34.5776Z" fill="black"/>
    <path d="M78 29.8387C78 32.1187 76.1425 33.9669 73.8511 33.9669C71.5597 33.9669 69.7021 32.1187 69.7021 29.8387C69.7021 27.5587 71.5597 25.7104 73.8511 25.7104C76.1425 25.7104 78 27.5587 78 29.8387Z" fill="black"/>
    <path d="M75.7722 48.9157C75.0556 49.6386 74.1599 50 73.0851 50C72.0103 50 71.1096 49.6386 70.3831 48.9157C69.6665 48.1829 69.3082 47.2718 69.3082 46.1826C69.3082 45.0933 69.6665 44.1872 70.3831 43.4643C71.1096 42.7315 72.0103 42.3651 73.0851 42.3651C74.1599 42.3651 75.0556 42.7315 75.7722 43.4643C76.4887 44.1872 76.847 45.0933 76.847 46.1826C76.847 47.2718 76.4887 48.1829 75.7722 48.9157ZM73.0851 48.7523C73.7917 48.7523 74.3789 48.5146 74.8466 48.0393C75.3144 47.5541 75.5483 46.9352 75.5483 46.1826C75.5483 45.4201 75.3144 44.8012 74.8466 44.3258C74.3789 43.8406 73.7917 43.598 73.0851 43.598C72.3685 43.598 71.7764 43.8406 71.3086 44.3258C70.8508 44.8012 70.6219 45.4201 70.6219 46.1826C70.6219 46.9451 70.8508 47.564 71.3086 48.0393C71.7764 48.5146 72.3685 48.7523 73.0851 48.7523Z" fill="black"/>
    <path d="M59.569 40.8203C59.3401 40.8203 59.146 40.7411 58.9868 40.5826C58.8375 40.4242 58.7628 40.2361 58.7628 40.0182C58.7628 39.8003 58.8375 39.6122 58.9868 39.4538C59.146 39.2953 59.3401 39.2161 59.569 39.2161C59.7879 39.2161 59.972 39.2953 60.1213 39.4538C60.2805 39.6023 60.3602 39.7904 60.3602 40.0182C60.3602 40.246 60.2805 40.4391 60.1213 40.5975C59.972 40.746 59.7879 40.8203 59.569 40.8203ZM59.0912 49.8217C58.9619 49.8217 58.8972 49.7524 58.8972 49.6138V42.7513C58.8972 42.6127 58.9619 42.5434 59.0912 42.5434H60.0317C60.1711 42.5434 60.2407 42.6127 60.2407 42.7513V49.6138C60.2407 49.7524 60.1711 49.8217 60.0317 49.8217H59.0912Z" fill="black"/>
    <path d="M45.4464 50C44.4014 50 43.5455 49.6385 42.8787 48.9156C42.2119 48.1927 41.8785 47.2817 41.8785 46.1825C41.8785 45.0932 42.2119 44.1872 42.8787 43.4643C43.5455 42.7315 44.4014 42.3651 45.4464 42.3651C46.6506 42.3651 47.5314 42.8355 48.0887 43.7762V39.4092C48.0887 39.2705 48.1583 39.2012 48.2977 39.2012H49.2382C49.3775 39.2012 49.4472 39.2705 49.4472 39.4092V49.6138C49.4472 49.7524 49.3775 49.8217 49.2382 49.8217H48.3723C48.2429 49.8217 48.1783 49.7524 48.1783 49.6138L48.1484 48.5294C47.5712 49.5098 46.6705 50 45.4464 50ZM45.6852 48.7671C46.4018 48.7671 46.984 48.5344 47.4318 48.069C47.8896 47.5936 48.1185 46.9698 48.1185 46.1974C48.1185 45.425 47.8896 44.8011 47.4318 44.3258C46.984 43.8406 46.4018 43.598 45.6852 43.598C44.9587 43.598 44.3616 43.8406 43.8938 44.3258C43.4261 44.8011 43.1922 45.42 43.1922 46.1825C43.1922 46.945 43.4261 47.5689 43.8938 48.0541C44.3616 48.5294 44.9587 48.7671 45.6852 48.7671Z" fill="black"/>
    <path d="M29.0948 49.9998C28.2887 49.9998 27.6418 49.7374 27.1542 49.2126C26.6765 48.6877 26.4376 47.955 26.4376 47.0142V42.7512C26.4376 42.6125 26.5073 42.5432 26.6466 42.5432H27.5871C27.7165 42.5432 27.7812 42.6125 27.7812 42.7512V46.8211C27.7812 47.4351 27.9304 47.9104 28.229 48.2471C28.5375 48.5838 28.9704 48.7521 29.5278 48.7521C30.105 48.7521 30.5727 48.5788 30.931 48.2322C31.2893 47.8856 31.4684 47.4153 31.4684 46.8211V42.7512C31.4684 42.6125 31.5331 42.5432 31.6625 42.5432H32.603C32.7423 42.5432 32.812 42.6125 32.812 42.7512V49.6136C32.812 49.7523 32.7423 49.8216 32.603 49.8216H31.7222C31.5829 49.8216 31.5132 49.7473 31.5132 49.5988L31.4684 48.6778C30.9708 49.5592 30.1796 49.9998 29.0948 49.9998Z" fill="black"/>
    <path d="M16.4102 50C15.8628 50 15.4349 49.8613 15.1264 49.5841C14.8278 49.2969 14.6785 48.8612 14.6785 48.2769V43.6277H13.738C13.5888 43.6277 13.5141 43.5534 13.5141 43.4049V42.7513C13.5141 42.6127 13.5888 42.5433 13.738 42.5433H14.6785V40.8203C14.6785 40.6817 14.7482 40.6123 14.8875 40.6123H15.828C15.9574 40.6123 16.0221 40.6817 16.0221 40.8203V42.5433H17.2462C17.3855 42.5433 17.4552 42.6127 17.4552 42.7513V43.4049C17.4552 43.5534 17.3855 43.6277 17.2462 43.6277H16.0221V48.1135C16.0221 48.6087 16.246 48.8562 16.6938 48.8562C16.8033 48.8562 16.9576 48.8463 17.1566 48.8265C17.3457 48.7968 17.4403 48.8612 17.4403 49.0196V49.6435C17.4403 49.8811 17.0969 50 16.4102 50Z" fill="black"/>
    <path d="M2.54527 50C1.51025 50 0.684213 49.6237 0.0671773 48.8711C-0.0223924 48.7622 -0.0223924 48.6334 0.0671773 48.4849L0.365743 48.069C0.475217 47.9304 0.594643 47.9254 0.724022 48.0541C1.28134 48.5889 1.86852 48.8563 2.48556 48.8563C2.87369 48.8563 3.18221 48.7721 3.41111 48.6037C3.64997 48.4255 3.76939 48.173 3.76939 47.8462C3.76939 47.5689 3.6848 47.3461 3.51561 47.1778C3.34642 47.0094 3.08269 46.851 2.72441 46.7024L1.84364 46.3311C0.758855 45.8855 0.21646 45.2369 0.21646 44.3853C0.21646 43.7713 0.440385 43.2811 0.888233 42.9147C1.34603 42.5483 1.89838 42.3651 2.54527 42.3651C3.47083 42.3651 4.21227 42.7117 4.76959 43.4049C4.84921 43.5039 4.84423 43.6079 4.75466 43.7168L4.39638 44.1327C4.28691 44.2615 4.16748 44.2615 4.0381 44.1327C3.59025 43.6871 3.11255 43.4643 2.60499 43.4643C2.28652 43.4643 2.02278 43.5435 1.81379 43.702C1.60479 43.8604 1.50029 44.0783 1.50029 44.3555C1.50029 44.6328 1.58986 44.8507 1.769 45.0091C1.94814 45.1675 2.2268 45.321 2.60499 45.4696L3.41111 45.7964C3.94853 46.0142 4.36652 46.2865 4.66509 46.6133C4.96365 46.9302 5.10796 47.3511 5.09801 47.8759C5.09801 48.5394 4.8492 49.0593 4.3516 49.4356C3.86394 49.8119 3.26183 50 2.54527 50Z" fill="black"/>
</svg>
