<svg width="554" height="78" viewBox="0 0 554 78" fill="none" xmlns="http://www.w3.org/2000/svg">
    <path d="M21.426 65.1543C7.87452 65.1543 0 58.6017 0 47.0879H8.14921C8.14921 54.7637 13.0937 58.6017 21.5176 58.6017C27.9271 58.6017 31.2234 56.5423 31.2234 51.7683C31.2234 48.5856 29.3005 46.7134 24.5392 45.4029L12.3612 41.7522C7.23357 40.2545 1.83128 36.8846 1.83128 29.4895C1.83128 21.3456 8.4239 16.7588 19.2285 16.7588C30.9487 16.7588 38.2738 22.2817 38.2738 32.3914H30.1246C30.1246 26.7749 26.2789 23.2178 19.32 23.2178C13.4599 23.2178 9.88893 25.8388 9.88893 29.3023C9.88893 32.3914 11.9033 34.2635 16.39 35.574L27.0114 38.6631C34.7028 40.9097 39.3726 44.7477 39.3726 51.9555C39.3726 60.3802 33.1462 65.1543 21.426 65.1543Z" fill="black"/>
    <path d="M209.871 43.3831C209.871 44.8674 210.396 46.4135 211.448 48.0215C212.561 49.6295 213.829 50.9901 215.251 52.1033C217.849 54.1442 220.879 55.1646 224.342 55.1646C229.847 55.1646 234.33 52.5053 237.794 47.1866L244.844 51.3612C242.432 55.2574 239.463 58.2569 235.938 60.3596C232.413 62.4624 228.548 63.5137 224.342 63.5137C221.188 63.5137 218.189 62.9262 215.344 61.7511C212.499 60.5142 209.994 58.8135 207.83 56.6489C205.665 54.4843 203.964 51.9796 202.727 49.1347C201.552 46.2899 200.965 43.2904 200.965 40.1363C200.965 36.9822 201.552 33.9827 202.727 31.1378C203.964 28.2311 205.665 25.6954 207.83 23.5308C209.932 21.3663 212.406 19.6964 215.251 18.5214C218.158 17.3463 221.188 16.7588 224.342 16.7588C227.496 16.7588 230.496 17.3463 233.341 18.5214C236.248 19.6964 238.752 21.3663 240.855 23.5308C245.432 28.2311 247.72 33.6734 247.72 39.858C247.72 40.9712 247.627 42.1462 247.441 43.3831H209.871ZM224.342 24.3657C221.807 24.3657 219.426 24.9223 217.199 26.0356C214.973 27.1488 213.179 28.6331 211.819 30.4884C210.52 32.2819 209.871 34.1991 209.871 36.24H238.814C238.814 34.1991 238.134 32.2819 236.773 30.4884C235.474 28.6331 233.712 27.1488 231.485 26.0356C229.259 24.9223 226.878 24.3657 224.342 24.3657Z" fill="black"/>
    <path d="M177.45 63.5137C174.289 63.5137 171.283 62.9262 168.432 61.7511C165.643 60.5142 163.164 58.8135 160.995 56.6489C158.888 54.5462 157.215 52.0724 155.975 49.2275C154.798 46.3208 154.209 43.2904 154.209 40.1363C154.209 36.9822 154.798 33.9827 155.975 31.1378C157.215 28.2311 158.888 25.7263 160.995 23.6236C163.164 21.459 165.643 19.7892 168.432 18.6141C171.283 17.3772 174.289 16.7588 177.45 16.7588C184.763 16.7588 190.96 19.851 196.042 26.0356L188.791 30.2101C185.569 26.8086 181.788 25.1079 177.45 25.1079C175.405 25.1079 173.452 25.5099 171.593 26.3139C169.796 27.056 168.215 28.1074 166.852 29.468C165.489 30.8286 164.404 32.4365 163.598 34.2919C162.793 36.1472 162.39 38.0954 162.39 40.1363C162.39 42.1771 162.793 44.1253 163.598 45.9806C164.404 47.836 165.489 49.444 166.852 50.8046C168.215 52.1651 169.796 53.2474 171.593 54.0514C173.452 54.7936 175.405 55.1646 177.45 55.1646C181.788 55.1646 185.569 53.4639 188.791 50.0624L196.042 54.237C190.96 60.4215 184.763 63.5137 177.45 63.5137Z" fill="black"/>
    <path d="M69.7703 64.2434C66.1903 64.2434 63.2071 63.6858 60.8205 62.5707C58.4339 61.3937 57.2068 59.5661 55.2598 57.0881V77.4582H45.9355V18.0597H55.2598V24.5645C57.2068 22.2104 58.5909 20.3209 61.2915 18.8961C63.9921 17.4712 66.8184 16.7588 69.7703 16.7588C72.9733 16.7588 76.0194 17.3783 78.9085 18.6173C81.8603 19.7943 84.4039 21.498 86.5393 23.7282C88.7375 25.9583 90.4333 28.5293 91.6266 31.4409C92.8827 34.2906 93.5107 37.3261 93.5107 40.5475C93.5107 43.7689 92.8827 46.8045 91.6266 49.6542C90.4333 52.5039 88.7375 55.0438 86.5393 57.274C84.4039 59.4422 81.8603 61.1459 78.9085 62.3849C76.0194 63.6239 72.9733 64.2434 69.7703 64.2434ZM69.7703 25.2149C67.6977 25.2149 65.7193 25.6176 63.8351 26.423C61.951 27.1664 60.318 28.2505 58.9363 29.6753C57.5546 31.1002 56.4555 32.7728 55.639 34.6933C54.8225 36.5518 54.4143 38.5032 54.4143 40.5475C54.4143 42.5919 54.8225 44.5433 55.639 46.4018C56.4555 48.2603 57.5546 49.902 58.9363 51.3268C60.318 52.7517 61.951 53.8668 63.8351 54.6721C65.7193 55.4775 67.6977 55.8801 69.7703 55.8801C71.8428 55.8801 73.8212 55.4775 75.7054 54.6721C77.5895 53.8668 79.2225 52.7517 80.6042 51.3268C81.9859 49.902 83.0536 48.2603 83.8073 46.4018C84.6238 44.5433 85.032 42.5919 85.032 40.5475C85.032 38.5032 84.6238 36.5518 83.8073 34.6933C83.0536 32.7728 81.9859 31.1002 80.6042 29.6753C79.2225 28.2505 77.5895 27.1664 75.7054 26.423C73.8212 25.6176 71.8428 25.2149 69.7703 25.2149Z" fill="black"/>
    <path fill-rule="evenodd" clip-rule="evenodd" d="M112.896 38.2595C109.595 46.5544 108.033 56.8184 107.63 64.0575L98.4316 63.538C98.8681 55.7056 100.544 44.3587 104.343 34.8106C107.983 25.6638 114.539 15.9385 125.791 15.9385C131.966 15.9385 136.49 20.2631 139.379 24.8435C140.596 26.7737 141.646 28.9266 142.524 31.1989C145.705 30.8672 148.35 30.8705 149.817 30.8724C149.92 30.8725 150.017 30.8727 150.108 30.8727V40.1477C150.029 40.1477 149.946 40.1476 149.861 40.1476C148.714 40.1467 147.028 40.1455 145.034 40.2873C145.104 40.6851 145.17 41.0825 145.231 41.4791C146.125 47.307 146.043 53.5178 144.384 58.5143C143.547 61.0381 142.22 63.5076 140.158 65.3822C138.012 67.3336 135.285 68.4352 132.161 68.4352C127.533 68.4352 123.588 67.3783 120.594 65.151C117.529 62.8699 115.889 59.6724 115.423 56.3116C114.535 49.9013 117.835 43.0546 122.799 38.7854C126.031 36.0062 129.74 34.225 133.321 33.0737C132.796 31.8919 132.22 30.7961 131.602 29.8153C129.379 26.2916 127.288 25.2135 125.791 25.2135C120.76 25.2135 116.356 29.5633 112.896 38.2595ZM135.972 41.9586C133.336 42.822 130.841 44.0674 128.783 45.8375C125.635 48.545 124.189 52.4415 124.547 55.0301C124.705 56.1688 125.187 57.0348 126.07 57.6922C127.026 58.4035 128.857 59.1602 132.161 59.1602C133.003 59.1602 133.53 58.9112 133.984 58.4989C134.521 58.0098 135.139 57.1026 135.647 55.5743C136.678 52.4668 136.89 47.8722 136.126 42.8946C136.078 42.5818 136.027 42.2697 135.972 41.9586Z" fill="black"/>
    <path d="M506.02 24.0414C504.519 23.3611 503.174 23.021 501.985 23.021C499.484 23.021 497.419 23.8868 495.793 25.6185C494.042 27.4738 493.166 29.6075 493.166 32.0194V61.5196H485.098V32.0194C485.098 28.6798 485.942 25.6185 487.631 22.8354C489.382 20.0524 491.759 17.8878 494.761 16.3417C497.013 15.2903 499.421 14.7646 501.985 14.7646C504.049 14.7646 506.02 15.1357 507.896 15.8779C509.773 16.62 511.743 17.826 513.807 19.4958L506.02 24.0414Z" fill="black"/>
    <path d="M536.053 63.1601C522.501 63.1601 514.627 56.6075 514.627 45.0937H522.776C522.776 52.7696 527.721 56.6075 536.145 56.6075C542.554 56.6075 545.85 54.5482 545.85 49.7741C545.85 46.5915 543.927 44.7193 539.166 43.4088L526.988 39.7581C521.861 38.2603 516.458 34.8904 516.458 27.4954C516.458 19.3515 523.051 14.7646 533.855 14.7646C545.576 14.7646 552.901 20.2875 552.901 30.3972H544.752C544.752 24.7807 540.906 21.2236 533.947 21.2236C528.087 21.2236 524.516 23.8446 524.516 27.3082C524.516 30.3972 526.53 32.2694 531.017 33.5799L541.638 36.669C549.33 38.9156 554 42.7535 554 49.9614C554 58.3861 547.773 63.1601 536.053 63.1601Z" fill="black"/>
    <path d="M439.044 42.2098C439.044 43.6941 439.57 45.2402 440.621 46.8482C441.735 48.4561 443.002 49.8167 444.425 50.93C447.022 52.9708 450.053 53.9913 453.516 53.9913C459.02 53.9913 463.504 51.332 466.967 46.0133L474.018 50.1878C471.606 54.0841 468.637 57.0835 465.112 59.1863C461.587 61.289 457.722 62.3404 453.516 62.3404C450.362 62.3404 447.363 61.7529 444.518 60.5778C441.673 59.3409 439.168 57.6402 437.003 55.4756C434.839 53.311 433.138 50.8063 431.901 47.9614C430.726 45.1165 430.139 42.117 430.139 38.9629C430.139 35.8088 430.726 32.8093 431.901 29.9644C433.138 27.0577 434.839 24.5221 437.003 22.3575C439.106 20.1929 441.58 18.5231 444.425 17.348C447.332 16.173 450.362 15.5854 453.516 15.5854C456.67 15.5854 459.67 16.173 462.515 17.348C465.421 18.5231 467.926 20.1929 470.029 22.3575C474.605 27.0577 476.894 32.5001 476.894 38.6846C476.894 39.7978 476.801 40.9729 476.615 42.2098H439.044ZM453.516 23.1924C450.98 23.1924 448.599 23.749 446.373 24.8622C444.147 25.9754 442.353 27.4597 440.992 29.3151C439.694 31.1086 439.044 33.0258 439.044 35.0667H467.988C467.988 33.0258 467.308 31.1086 465.947 29.3151C464.648 27.4597 462.886 25.9754 460.659 24.8622C458.433 23.749 456.052 23.1924 453.516 23.1924Z" fill="black"/>
    <path d="M416.989 61.5197L402.98 44.4052V61.5197H394.869V0H402.98V26.5506L415.514 14.7092H427.587L405.745 35.0616L427.68 61.5197H416.989Z" fill="black"/>
    <path d="M377.366 61.8756V54.8113C375.356 57.1041 373.032 58.9321 370.395 60.2954C367.757 61.6587 364.962 62.3404 362.01 62.3404C358.744 62.3404 355.667 61.7517 352.778 60.5743C349.951 59.3969 347.439 57.7238 345.241 55.5549C343.043 53.448 341.316 50.9692 340.059 48.1187C338.866 45.2062 338.27 42.1698 338.27 39.0094C338.27 35.849 338.866 32.8436 340.059 29.993C341.316 27.0805 343.043 24.5398 345.241 22.371C347.439 20.2021 349.951 18.5289 352.778 17.3515C355.667 16.1741 358.744 15.5854 362.01 15.5854C365.025 15.5854 367.851 16.2051 370.489 17.4445C373.189 18.6839 375.482 20.419 377.366 22.6498V16.515H385.845V61.8756H377.366ZM362.01 23.8582C359.937 23.8582 357.928 24.261 355.981 25.0666C354.097 25.8102 352.464 26.8636 351.082 28.2269C349.7 29.5902 348.601 31.2324 347.785 33.1534C347.031 35.0125 346.654 36.9644 346.654 39.0094C346.654 41.0543 347.031 43.0063 347.785 44.8654C348.601 46.7244 349.7 48.3356 351.082 49.6989C352.464 51.0622 354.097 52.1466 355.981 52.9522C357.928 53.6958 359.937 54.0676 362.01 54.0676C364.083 54.0676 366.061 53.6958 367.945 52.9522C369.829 52.1466 371.462 51.0622 372.844 49.6989C374.226 48.3356 375.293 46.7244 376.047 44.8654C376.864 43.0063 377.272 41.0543 377.272 39.0094C377.272 36.9644 376.864 35.0125 376.047 33.1534C375.293 31.2324 374.226 29.5902 372.844 28.2269C371.462 26.8636 369.829 25.8102 367.945 25.0666C366.061 24.261 364.083 23.8582 362.01 23.8582Z" fill="black"/>
    <path fill-rule="evenodd" clip-rule="evenodd" d="M308.691 11.415C312.629 12.4424 316.533 14.669 318.647 18.424C320.26 21.2885 320.901 24.3416 320.012 27.3732C319.171 30.2418 317.186 32.2813 315.315 33.7235C313.43 35.1763 311.187 36.3793 309.152 37.4075C308.438 37.7683 307.755 38.1051 307.095 38.431C305.733 39.1028 304.466 39.7281 303.212 40.4209C300.395 41.9776 298.376 44.749 297.806 47.3312C297.311 49.5726 297.857 51.5319 300.104 52.9987C300.177 52.995 300.3 52.9806 300.486 52.9372C301.163 52.7792 302.224 52.3204 303.645 51.3499C306.47 49.4204 309.828 46.0826 313.094 41.8653C316.332 37.6859 319.308 32.8639 321.456 28.1488C323.638 23.3599 324.801 19.0403 324.801 15.7697H334.168V61.9546H324.801V41.478C323.444 43.6017 321.998 45.6518 320.507 47.5769C316.901 52.2321 312.857 56.3813 308.938 59.0583C306.986 60.3912 304.84 61.5155 302.622 62.0337C300.351 62.5642 297.687 62.5149 295.27 61.0046C289.152 57.1822 287.408 50.9838 288.658 45.3216C289.843 39.9549 293.657 35.0201 298.673 32.2486C300.121 31.4486 301.718 30.6598 303.178 29.939C303.79 29.6371 304.377 29.3472 304.919 29.0733C306.906 28.0694 308.459 27.2007 309.587 26.3311C310.729 25.4508 310.973 24.9171 311.022 24.7507C311.022 24.7506 311.022 24.7505 311.022 24.7502C311.029 24.7329 311.203 24.2827 310.48 22.9981C310.023 22.1875 308.756 21.0887 306.321 20.4535C303.971 19.8403 301.035 19.8166 298.126 20.6395C292.587 22.2062 287.019 26.8534 286.217 36.9667C285.904 40.9149 286.362 45.1349 286.975 49.4783C287.074 50.1861 287.181 50.9086 287.288 51.639C287.802 55.1376 288.343 58.8192 288.344 61.9546L278.977 61.9547C278.977 59.5664 278.565 56.7422 278.058 53.266C277.942 52.4722 277.821 51.6444 277.699 50.78C277.078 46.3756 276.479 41.2794 276.88 36.2306C277.998 22.1166 286.367 14.2544 295.57 11.6513C300.032 10.3892 304.669 10.3655 308.691 11.415ZM300.016 52.9962C300.017 52.9956 300.025 52.996 300.041 52.9992C300.024 52.9984 300.016 52.9968 300.016 52.9962Z" fill="black"/>
</svg>
